<?xml version="1.0" encoding="us-ascii" standalone="no"?><svg xmlns="http://www.w3.org/2000/svg" xmlns:xlink="http://www.w3.org/1999/xlink" contentStyleType="text/css" height="491px" preserveAspectRatio="none" style="width:1154px;height:491px;background:#FFFFFF;" version="1.1" viewBox="0 0 1154 491" width="1154px" zoomAndPan="magnify"><defs/><g><!--class GradioBlocks--><g id="elem_GradioBlocks"><rect codeLine="1" fill="#F1F1F1" height="145.7813" id="GradioBlocks" rx="2.5" ry="2.5" style="stroke:#181818;stroke-width:0.5;" width="551" x="252" y="7"/><ellipse cx="477.75" cy="23" fill="#ADD1B2" rx="11" ry="11" style="stroke:#181818;stroke-width:1.0;"/><path d="M480.7188,28.6406 Q480.1406,28.9375 479.5,29.0781 Q478.8594,29.2344 478.1563,29.2344 Q475.6563,29.2344 474.3281,27.5938 Q473.0156,25.9375 473.0156,22.8125 Q473.0156,19.6875 474.3281,18.0313 Q475.6563,16.375 478.1563,16.375 Q478.8594,16.375 479.5,16.5313 Q480.1563,16.6875 480.7188,16.9844 L480.7188,19.7031 Q480.0938,19.125 479.5,18.8594 Q478.9063,18.5781 478.2813,18.5781 Q476.9375,18.5781 476.25,19.6563 Q475.5625,20.7188 475.5625,22.8125 Q475.5625,24.9063 476.25,25.9844 Q476.9375,27.0469 478.2813,27.0469 Q478.9063,27.0469 479.5,26.7813 Q480.0938,26.5 480.7188,25.9219 L480.7188,28.6406 Z " fill="#000000"/><text fill="#000000" font-family="sans-serif" font-size="14" lengthAdjust="spacing" textLength="91" x="498.25" y="27.8467">GradioBlocks</text><line style="stroke:#181818;stroke-width:0.5;" x1="253" x2="802" y1="39" y2="39"/><line style="stroke:#181818;stroke-width:0.5;" x1="253" x2="802" y1="47" y2="47"/><ellipse cx="263" cy="60.6484" fill="#84BE84" rx="3" ry="3" style="stroke:#038048;stroke-width:1.0;"/><text fill="#000000" font-family="sans-serif" font-size="14" lengthAdjust="spacing" textLength="156" x="272" y="63.9951">Markdown(text: String)</text><ellipse cx="263" cy="76.9453" fill="#84BE84" rx="3" ry="3" style="stroke:#038048;stroke-width:1.0;"/><text fill="#000000" font-family="sans-serif" font-size="14" lengthAdjust="spacing" textLength="357" x="272" y="80.292">Textbox(label: String, lines: Int, interactive: Boolean)</text><ellipse cx="263" cy="93.2422" fill="#84BE84" rx="3" ry="3" style="stroke:#038048;stroke-width:1.0;"/><text fill="#000000" font-family="sans-serif" font-size="14" lengthAdjust="spacing" textLength="525" x="272" y="96.5889">Slider(minimum: Float, maximum: Float, step: Float, value: Float, label: String)</text><ellipse cx="263" cy="109.5391" fill="#84BE84" rx="3" ry="3" style="stroke:#038048;stroke-width:1.0;"/><text fill="#000000" font-family="sans-serif" font-size="14" lengthAdjust="spacing" textLength="138" x="272" y="112.8857">Button(label: String)</text><ellipse cx="263" cy="125.8359" fill="#84BE84" rx="3" ry="3" style="stroke:#038048;stroke-width:1.0;"/><text fill="#000000" font-family="sans-serif" font-size="14" lengthAdjust="spacing" textLength="40" x="272" y="129.1826">Row()</text><ellipse cx="263" cy="142.1328" fill="#84BE84" rx="3" ry="3" style="stroke:#038048;stroke-width:1.0;"/><text fill="#000000" font-family="sans-serif" font-size="14" lengthAdjust="spacing" textLength="125" x="272" y="145.4795">Column(scale: Int)</text></g><!--class Tokenizer--><g id="elem_Tokenizer"><rect codeLine="10" fill="#F1F1F1" height="80.5938" id="Tokenizer" rx="2.5" ry="2.5" style="stroke:#181818;stroke-width:0.5;" width="453" x="7" y="403.68"/><ellipse cx="194.75" cy="419.68" fill="#ADD1B2" rx="11" ry="11" style="stroke:#181818;stroke-width:1.0;"/><path d="M197.7188,425.3206 Q197.1406,425.6175 196.5,425.7581 Q195.8594,425.9144 195.1563,425.9144 Q192.6563,425.9144 191.3281,424.2737 Q190.0156,422.6175 190.0156,419.4925 Q190.0156,416.3675 191.3281,414.7112 Q192.6563,413.055 195.1563,413.055 Q195.8594,413.055 196.5,413.2112 Q197.1563,413.3675 197.7188,413.6644 L197.7188,416.3831 Q197.0938,415.805 196.5,415.5394 Q195.9063,415.2581 195.2813,415.2581 Q193.9375,415.2581 193.25,416.3362 Q192.5625,417.3987 192.5625,419.4925 Q192.5625,421.5862 193.25,422.6644 Q193.9375,423.7269 195.2813,423.7269 Q195.9063,423.7269 196.5,423.4612 Q197.0938,423.18 197.7188,422.6019 L197.7188,425.3206 Z " fill="#000000"/><text fill="#000000" font-family="sans-serif" font-size="14" lengthAdjust="spacing" textLength="69" x="215.25" y="424.5267">Tokenizer</text><line style="stroke:#181818;stroke-width:0.5;" x1="8" x2="459" y1="435.68" y2="435.68"/><line style="stroke:#181818;stroke-width:0.5;" x1="8" x2="459" y1="443.68" y2="443.68"/><ellipse cx="18" cy="457.3284" fill="#84BE84" rx="3" ry="3" style="stroke:#038048;stroke-width:1.0;"/><text fill="#000000" font-family="sans-serif" font-size="14" lengthAdjust="spacing" textLength="355" x="27" y="460.6751">encode(text: String, return_tensors: String): Tensor</text><ellipse cx="18" cy="473.6253" fill="#84BE84" rx="3" ry="3" style="stroke:#038048;stroke-width:1.0;"/><text fill="#000000" font-family="sans-serif" font-size="14" lengthAdjust="spacing" textLength="427" x="27" y="476.972">decode(tensor: Tensor, skip_special_tokens: Boolean): String</text></g><!--class Model--><g id="elem_Model"><rect codeLine="15" fill="#F1F1F1" height="64.2969" id="Model" rx="2.5" ry="2.5" style="stroke:#181818;stroke-width:0.5;" width="652" x="495.5" y="411.82"/><ellipse cx="796.25" cy="427.82" fill="#ADD1B2" rx="11" ry="11" style="stroke:#181818;stroke-width:1.0;"/><path d="M799.2188,433.4606 Q798.6406,433.7575 798,433.8981 Q797.3594,434.0544 796.6563,434.0544 Q794.1563,434.0544 792.8281,432.4138 Q791.5156,430.7575 791.5156,427.6325 Q791.5156,424.5075 792.8281,422.8513 Q794.1563,421.195 796.6563,421.195 Q797.3594,421.195 798,421.3513 Q798.6563,421.5075 799.2188,421.8044 L799.2188,424.5231 Q798.5938,423.945 798,423.6794 Q797.4063,423.3981 796.7813,423.3981 Q795.4375,423.3981 794.75,424.4763 Q794.0625,425.5388 794.0625,427.6325 Q794.0625,429.7263 794.75,430.8044 Q795.4375,431.8669 796.7813,431.8669 Q797.4063,431.8669 798,431.6013 Q798.5938,431.32 799.2188,430.7419 L799.2188,433.4606 Z " fill="#000000"/><text fill="#000000" font-family="sans-serif" font-size="14" lengthAdjust="spacing" textLength="42" x="816.75" y="432.6667">Model</text><line style="stroke:#181818;stroke-width:0.5;" x1="496.5" x2="1146.5" y1="443.82" y2="443.82"/><line style="stroke:#181818;stroke-width:0.5;" x1="496.5" x2="1146.5" y1="451.82" y2="451.82"/><ellipse cx="506.5" cy="465.4684" fill="#84BE84" rx="3" ry="3" style="stroke:#038048;stroke-width:1.0;"/><text fill="#000000" font-family="sans-serif" font-size="14" lengthAdjust="spacing" textLength="626" x="515.5" y="468.8151">generate(input_ids: Tensor, max_length: Int, pad_token_id: Int, temperature: Float): Tensor</text></g><!--class Chatbot--><g id="elem_Chatbot"><rect codeLine="19" fill="#F1F1F1" height="96.8906" id="Chatbot" rx="2.5" ry="2.5" style="stroke:#181818;stroke-width:0.5;" width="527" x="264" y="229.79"/><ellipse cx="495.75" cy="245.79" fill="#ADD1B2" rx="11" ry="11" style="stroke:#181818;stroke-width:1.0;"/><path d="M498.7188,251.4306 Q498.1406,251.7275 497.5,251.8681 Q496.8594,252.0244 496.1563,252.0244 Q493.6563,252.0244 492.3281,250.3838 Q491.0156,248.7275 491.0156,245.6025 Q491.0156,242.4775 492.3281,240.8213 Q493.6563,239.165 496.1563,239.165 Q496.8594,239.165 497.5,239.3213 Q498.1563,239.4775 498.7188,239.7744 L498.7188,242.4931 Q498.0938,241.915 497.5,241.6494 Q496.9063,241.3681 496.2813,241.3681 Q494.9375,241.3681 494.25,242.4463 Q493.5625,243.5088 493.5625,245.6025 Q493.5625,247.6963 494.25,248.7744 Q494.9375,249.8369 496.2813,249.8369 Q496.9063,249.8369 497.5,249.5713 Q498.0938,249.29 498.7188,248.7119 L498.7188,251.4306 Z " fill="#000000"/><text fill="#000000" font-family="sans-serif" font-size="14" lengthAdjust="spacing" textLength="55" x="516.25" y="250.6367">Chatbot</text><line style="stroke:#181818;stroke-width:0.5;" x1="265" x2="790" y1="261.79" y2="261.79"/><rect fill="none" height="6" style="stroke:#C82930;stroke-width:1.0;" width="6" x="272" y="272.4384"/><text fill="#000000" font-family="sans-serif" font-size="14" lengthAdjust="spacing" textLength="168" x="284" y="278.7851">chat_history_ids: Tensor</text><line style="stroke:#181818;stroke-width:0.5;" x1="265" x2="790" y1="286.0869" y2="286.0869"/><ellipse cx="275" cy="299.7353" fill="#84BE84" rx="3" ry="3" style="stroke:#038048;stroke-width:1.0;"/><text fill="#000000" font-family="sans-serif" font-size="14" lengthAdjust="spacing" textLength="501" x="284" y="303.082">chatbot_response(user_input: String, temperature: Float): (String, String)</text><ellipse cx="275" cy="316.0322" fill="#84BE84" rx="3" ry="3" style="stroke:#038048;stroke-width:1.0;"/><text fill="#000000" font-family="sans-serif" font-size="14" lengthAdjust="spacing" textLength="187" x="284" y="319.3789">clear_chat(): (String, String)</text></g><!--link GradioBlocks to Chatbot--><g id="link_GradioBlocks_Chatbot"><path codeLine="25" d="M527.5,153.17 C527.5,178.64 527.5,200.62 527.5,223.56 " fill="none" id="GradioBlocks-to-Chatbot" style="stroke:#181818;stroke-width:1.0;"/><polygon fill="#181818" points="527.5,229.56,531.5,220.56,527.5,224.56,523.5,220.56,527.5,229.56" style="stroke:#181818;stroke-width:1.0;"/><text fill="#000000" font-family="sans-serif" font-size="13" lengthAdjust="spacing" textLength="30" x="528.5" y="195.8569">uses</text><text fill="#000000" font-family="sans-serif" font-size="13" lengthAdjust="spacing" textLength="8" x="518.9375" y="218.7366">1</text></g><!--link Chatbot to Tokenizer--><g id="link_Chatbot_Tokenizer"><path codeLine="26" d="M441.67,327.03 C398.11,351.29 351.0716,377.4901 309.8016,400.4801 " fill="none" id="Chatbot-to-Tokenizer" style="stroke:#181818;stroke-width:1.0;"/><polygon fill="#181818" points="304.56,403.4,314.369,402.5145,308.928,400.9668,310.4758,395.5258,304.56,403.4" style="stroke:#181818;stroke-width:1.0;"/><text fill="#000000" font-family="sans-serif" font-size="13" lengthAdjust="spacing" textLength="30" x="381.5" y="369.7469">uses</text><text fill="#000000" font-family="sans-serif" font-size="13" lengthAdjust="spacing" textLength="8" x="307.6668" y="392.5152">1</text></g><!--link Chatbot to Model--><g id="link_Chatbot_Model"><path codeLine="27" d="M613.33,327.03 C662.14,354.22 716.6686,384.5797 759.6186,408.5097 " fill="none" id="Chatbot-to-Model" style="stroke:#181818;stroke-width:1.0;"/><polygon fill="#181818" points="764.86,411.43,758.9448,403.5553,760.4922,408.9964,755.0511,410.5438,764.86,411.43" style="stroke:#181818;stroke-width:1.0;"/><text fill="#000000" font-family="sans-serif" font-size="13" lengthAdjust="spacing" textLength="30" x="693.5" y="369.7469">uses</text><text fill="#000000" font-family="sans-serif" font-size="13" lengthAdjust="spacing" textLength="8" x="745.3005" y="400.8772">1</text></g><!--SRC=[TLAnRi8m4Dtp5HQJKM7ecg43IAqwi1HsopWdiEAS8zyPQAl-UnqI9ur4C-NktRttyYx6QIBn5dHb_SPvKvFuBaHwdiHEXxhoLvGCDox5deF5qt803wbtz3Vfz15S1bV2MGGgnJloIbXa2DgmlK0fDjuxq9ZNzyvM46HZqJQnASMhypgjDFesgucX7OkBTX76QYQSQJUHsQDyY7tugyplM-zYWvACTd1tkon-YiBSipZu6j1-GHY303I-WbaCAn60Oq35WEG3ZM9bIgRh3AiL3AjTBsFfkshRAch1MEqKTu8qHPIv9akxnE56EoV0b2k3jDX6LhQYYJW5g1pWYS_34LfTzG9fRcWnD6r744DESt8zIcxFEjsN1z6rCAbMPqlim-TVoS6JwSTL06ez4iX84DJTu1JPGs6PqVcrJ8eYg8vMFXfAFcV_x7hz8XRFYz5sAP81AdAPuUcs_mpqIVVWBm00]--></g></svg>