<?xml version="1.0" encoding="us-ascii" standalone="no"?><svg xmlns="http://www.w3.org/2000/svg" xmlns:xlink="http://www.w3.org/1999/xlink" contentStyleType="text/css" height="442px" preserveAspectRatio="none" style="width:408px;height:442px;background:#FFFFFF;" version="1.1" viewBox="0 0 408 442" width="408px" zoomAndPan="magnify"><defs/><g><!--class MenkeAI--><g id="elem_MenkeAI"><rect codeLine="1" fill="#F1F1F1" height="113.1875" id="MenkeAI" rx="2.5" ry="2.5" style="stroke:#181818;stroke-width:0.5;" width="274" x="67" y="181"/><ellipse cx="168.75" cy="197" fill="#ADD1B2" rx="11" ry="11" style="stroke:#181818;stroke-width:1.0;"/><path d="M171.0938,192.6719 C170.1563,192.2344 169.5625,192.0938 168.6875,192.0938 C166.0625,192.0938 164.0625,194.1719 164.0625,196.8906 L164.0625,198.0156 C164.0625,200.5938 166.1719,202.4844 169.0625,202.4844 C170.2813,202.4844 171.4375,202.1875 172.1875,201.6406 C172.7656,201.2344 173.0938,200.7813 173.0938,200.3906 C173.0938,199.9375 172.7031,199.5469 172.2344,199.5469 C172.0156,199.5469 171.8125,199.625 171.625,199.8125 C171.1719,200.2969 171.1719,200.2969 170.9844,200.3906 C170.5625,200.6563 169.875,200.7813 169.1094,200.7813 C167.0625,200.7813 165.7656,199.6875 165.7656,197.9844 L165.7656,196.8906 C165.7656,195.1094 167.0156,193.7969 168.75,193.7969 C169.3281,193.7969 169.9375,193.9531 170.4063,194.2031 C170.8906,194.4844 171.0625,194.7031 171.1563,195.1094 C171.2188,195.5156 171.25,195.6406 171.3906,195.7656 C171.5313,195.9063 171.7656,196.0156 171.9844,196.0156 C172.25,196.0156 172.5156,195.875 172.6875,195.6563 C172.7969,195.5 172.8281,195.3125 172.8281,194.8906 L172.8281,193.4688 C172.8281,193.0313 172.8125,192.9063 172.7188,192.75 C172.5625,192.4844 172.2813,192.3438 171.9844,192.3438 C171.6875,192.3438 171.4844,192.4375 171.2656,192.75 L171.0938,192.6719 Z " fill="#000000"/><text fill="#000000" font-family="sans-serif" font-size="14" lengthAdjust="spacing" textLength="62" x="189.25" y="201.8467">MenkeAI</text><line style="stroke:#181818;stroke-width:0.5;" x1="68" x2="340" y1="213" y2="213"/><rect fill="none" height="6" style="stroke:#C82930;stroke-width:1.0;" width="6" x="75" y="223.6484"/><text fill="#000000" font-family="sans-serif" font-size="14" lengthAdjust="spacing" textLength="93" x="87" y="229.9951">name: String</text><rect fill="none" height="6" style="stroke:#C82930;stroke-width:1.0;" width="6" x="75" y="239.9453"/><text fill="#000000" font-family="sans-serif" font-size="14" lengthAdjust="spacing" textLength="175" x="87" y="246.292">personalityTraits: String</text><line style="stroke:#181818;stroke-width:0.5;" x1="68" x2="340" y1="253.5938" y2="253.5938"/><ellipse cx="78" cy="267.2422" fill="#84BE84" rx="3" ry="3" style="stroke:#038048;stroke-width:1.0;"/><text fill="#000000" font-family="sans-serif" font-size="14" lengthAdjust="spacing" textLength="248" x="87" y="270.5889">processInput(input: String): String</text><ellipse cx="78" cy="283.5391" fill="#84BE84" rx="3" ry="3" style="stroke:#038048;stroke-width:1.0;"/><text fill="#000000" font-family="sans-serif" font-size="14" lengthAdjust="spacing" textLength="199" x="87" y="286.8857">generateResponse(): String</text></g><!--class D_ID_API--><g id="elem_D_ID_API"><rect codeLine="8" fill="#F1F1F1" height="64.2969" id="D_ID_API" rx="2.5" ry="2.5" style="stroke:#181818;stroke-width:0.5;" width="394" x="7" y="371"/><ellipse cx="168.25" cy="387" fill="#ADD1B2" rx="11" ry="11" style="stroke:#181818;stroke-width:1.0;"/><path d="M170.5938,382.6719 C169.6563,382.2344 169.0625,382.0938 168.1875,382.0938 C165.5625,382.0938 163.5625,384.1719 163.5625,386.8906 L163.5625,388.0156 C163.5625,390.5938 165.6719,392.4844 168.5625,392.4844 C169.7813,392.4844 170.9375,392.1875 171.6875,391.6406 C172.2656,391.2344 172.5938,390.7813 172.5938,390.3906 C172.5938,389.9375 172.2031,389.5469 171.7344,389.5469 C171.5156,389.5469 171.3125,389.625 171.125,389.8125 C170.6719,390.2969 170.6719,390.2969 170.4844,390.3906 C170.0625,390.6563 169.375,390.7813 168.6094,390.7813 C166.5625,390.7813 165.2656,389.6875 165.2656,387.9844 L165.2656,386.8906 C165.2656,385.1094 166.5156,383.7969 168.25,383.7969 C168.8281,383.7969 169.4375,383.9531 169.9063,384.2031 C170.3906,384.4844 170.5625,384.7031 170.6563,385.1094 C170.7188,385.5156 170.75,385.6406 170.8906,385.7656 C171.0313,385.9063 171.2656,386.0156 171.4844,386.0156 C171.75,386.0156 172.0156,385.875 172.1875,385.6563 C172.2969,385.5 172.3281,385.3125 172.3281,384.8906 L172.3281,383.4688 C172.3281,383.0313 172.3125,382.9063 172.2188,382.75 C172.0625,382.4844 171.7813,382.3438 171.4844,382.3438 C171.1875,382.3438 170.9844,382.4375 170.7656,382.75 L170.5938,382.6719 Z " fill="#000000"/><text fill="#000000" font-family="sans-serif" font-size="14" lengthAdjust="spacing" textLength="63" x="188.75" y="391.8467">D_ID_API</text><line style="stroke:#181818;stroke-width:0.5;" x1="8" x2="400" y1="403" y2="403"/><line style="stroke:#181818;stroke-width:0.5;" x1="8" x2="400" y1="411" y2="411"/><ellipse cx="18" cy="424.6484" fill="#84BE84" rx="3" ry="3" style="stroke:#038048;stroke-width:1.0;"/><text fill="#000000" font-family="sans-serif" font-size="14" lengthAdjust="spacing" textLength="368" x="27" y="427.9951">syncAvatarWithResponse(response: String): Avatar</text></g><!--class UserInterface--><g id="elem_UserInterface"><rect codeLine="12" fill="#F1F1F1" height="96.8906" id="UserInterface" rx="2.5" ry="2.5" style="stroke:#181818;stroke-width:0.5;" width="275" x="66.5" y="7"/><ellipse cx="151.25" cy="23" fill="#ADD1B2" rx="11" ry="11" style="stroke:#181818;stroke-width:1.0;"/><path d="M153.5938,18.6719 C152.6563,18.2344 152.0625,18.0938 151.1875,18.0938 C148.5625,18.0938 146.5625,20.1719 146.5625,22.8906 L146.5625,24.0156 C146.5625,26.5938 148.6719,28.4844 151.5625,28.4844 C152.7813,28.4844 153.9375,28.1875 154.6875,27.6406 C155.2656,27.2344 155.5938,26.7813 155.5938,26.3906 C155.5938,25.9375 155.2031,25.5469 154.7344,25.5469 C154.5156,25.5469 154.3125,25.625 154.125,25.8125 C153.6719,26.2969 153.6719,26.2969 153.4844,26.3906 C153.0625,26.6563 152.375,26.7813 151.6094,26.7813 C149.5625,26.7813 148.2656,25.6875 148.2656,23.9844 L148.2656,22.8906 C148.2656,21.1094 149.5156,19.7969 151.25,19.7969 C151.8281,19.7969 152.4375,19.9531 152.9063,20.2031 C153.3906,20.4844 153.5625,20.7031 153.6563,21.1094 C153.7188,21.5156 153.75,21.6406 153.8906,21.7656 C154.0313,21.9063 154.2656,22.0156 154.4844,22.0156 C154.75,22.0156 155.0156,21.875 155.1875,21.6563 C155.2969,21.5 155.3281,21.3125 155.3281,20.8906 L155.3281,19.4688 C155.3281,19.0313 155.3125,18.9063 155.2188,18.75 C155.0625,18.4844 154.7813,18.3438 154.4844,18.3438 C154.1875,18.3438 153.9844,18.4375 153.7656,18.75 L153.5938,18.6719 Z " fill="#000000"/><text fill="#000000" font-family="sans-serif" font-size="14" lengthAdjust="spacing" textLength="97" x="171.75" y="27.8467">UserInterface</text><line style="stroke:#181818;stroke-width:0.5;" x1="67.5" x2="340.5" y1="39" y2="39"/><line style="stroke:#181818;stroke-width:0.5;" x1="67.5" x2="340.5" y1="47" y2="47"/><ellipse cx="77.5" cy="60.6484" fill="#84BE84" rx="3" ry="3" style="stroke:#038048;stroke-width:1.0;"/><text fill="#000000" font-family="sans-serif" font-size="14" lengthAdjust="spacing" textLength="132" x="86.5" y="63.9951">displayInputField()</text><ellipse cx="77.5" cy="76.9453" fill="#84BE84" rx="3" ry="3" style="stroke:#038048;stroke-width:1.0;"/><text fill="#000000" font-family="sans-serif" font-size="14" lengthAdjust="spacing" textLength="249" x="86.5" y="80.292">displayResponse(response: String)</text><ellipse cx="77.5" cy="93.2422" fill="#84BE84" rx="3" ry="3" style="stroke:#038048;stroke-width:1.0;"/><text fill="#000000" font-family="sans-serif" font-size="14" lengthAdjust="spacing" textLength="208" x="86.5" y="96.5889">displayAvatar(avatar: Avatar)</text></g><!--link MenkeAI to D_ID_API--><g id="link_MenkeAI_D_ID_API"><path codeLine="18" d="M204,294.31 C204,319.843 204,343.1414 204,364.7264 " fill="none" id="MenkeAI-to-D_ID_API" style="stroke:#181818;stroke-width:1.0;"/><polygon fill="#181818" points="204,370.7264,208,361.7264,204,365.7264,200,361.7264,204,370.7264" style="stroke:#181818;stroke-width:1.0;"/><text fill="#000000" font-family="sans-serif" font-size="13" lengthAdjust="spacing" textLength="30" x="205" y="337.0669">uses</text></g><!--link UserInterface to MenkeAI--><g id="link_UserInterface_MenkeAI"><path codeLine="19" d="M204,104.264 C204,127.803 204,150.326 204,174.847 " fill="none" id="UserInterface-to-MenkeAI" style="stroke:#181818;stroke-width:1.0;"/><polygon fill="#181818" points="204,180.847,208,171.847,204,175.847,200,171.847,204,180.847" style="stroke:#181818;stroke-width:1.0;"/><text fill="#000000" font-family="sans-serif" font-size="13" lengthAdjust="spacing" textLength="56" x="205" y="147.0669">interacts</text></g><!--SRC=[TP1DQiD038NtFeMMDiONyA9WC0Kl2g5foTA8iPeCTUL1KWeczEwj_-j0PZ4pI9_qdkHQL8KNuaygAhX5y7SoOFoY78ucdizpA91enzXwwzy4lUakdqAGpf5gnU5giH_k1KZko3Cn2HgzaeQEbU8D-8aYDnegwwgiYyFYA0NjsHNVQ2WdRvUrLERFFws9sbgzAqd5HlA1ZjP-ZTVGOZ_QVVRKDd6oppoMs7EJN8pZiwWdW_oor2nxMkV9uQgaqTxJ0Cnm3du8epFz1G00]--></g></svg>